<svg width="16" height="16" viewBox="0 0 16 16" fill="none" xmlns="http://www.w3.org/2000/svg">
<g id="world">
<path id="Shape" fill-rule="evenodd" clip-rule="evenodd" d="M8.33628 0.0244211C8.31496 0.0220134 8.29365 0.0193191 8.27233 0.0166233C8.20665 0.00831885 8.14086 0 8.07411 0C8.06026 0 8.04658 0.00185563 8.03292 0.00370698C8.02111 0.0053089 8.00932 0.00690761 7.99747 0.00729825C7.97609 0.00690704 7.95482 0.00530429 7.93354 0.00370006C7.90901 0.00185101 7.88445 0 7.85965 0C3.52589 0 0 3.52618 0 7.85965C0 12.1937 3.52589 15.7193 7.85965 15.7193C7.88457 15.7193 7.90925 15.7175 7.93386 15.7157C7.95498 15.7142 7.97606 15.7127 7.99719 15.7123C8.00917 15.7127 8.02103 15.7142 8.03288 15.7157C8.04658 15.7175 8.06026 15.7193 8.07411 15.7193C8.14436 15.7193 8.21354 15.7104 8.28266 15.7016L8.314 15.6976L8.33628 15.6949C12.448 15.4467 15.7193 12.0328 15.7193 7.85965C15.7193 3.68646 12.448 0.272842 8.33628 0.0244211ZM5.50681 1.40239C4.71074 2.3214 4.064 3.64098 3.70891 5.19944C2.60463 5.07958 1.93825 4.94007 1.66961 4.87551C2.45 3.26408 3.82582 2.0188 5.50681 1.40239ZM1.29768 5.79088C1.09137 6.44379 0.979088 7.13881 0.979088 7.85965C0.98025 8.70648 1.13883 9.54572 1.44674 10.3346C1.7614 10.2585 2.4626 10.1128 3.60084 9.98933C3.48014 9.31312 3.40912 8.60154 3.40912 7.85965C3.40974 7.29297 3.44979 6.72702 3.52898 6.16589C2.20211 6.01853 1.48519 5.8414 1.29768 5.79088ZM1.87453 11.2418C2.23046 11.166 2.86821 11.0512 3.81081 10.9527C4.18161 12.3248 4.78484 13.4844 5.50737 14.3175C3.97014 13.755 2.68253 12.6651 1.87396 11.2418H1.87453ZM4.70653 10.8688C5.21488 12.8376 6.45502 14.2981 7.29712 14.6507V10.7658C6.45502 10.7759 5.43747 10.8146 4.70653 10.8688ZM7.29712 9.78723C6.45502 9.79789 5.30891 9.84112 4.52744 9.90175C4.41993 9.25333 4.38933 8.5673 4.38933 7.85965C4.38933 7.30947 4.4 6.77389 4.46653 6.25656C5.26007 6.31944 6.45502 6.36463 7.29712 6.37586V9.78695V9.78723ZM4.60126 5.28646C5.3541 5.344 6.45502 5.38667 7.29712 5.39705V5.39677V1.06891C6.45502 1.4473 5.07144 3.09839 4.60126 5.28646ZM14.0244 4.82161C13.8709 4.86877 13.2488 5.04225 12.0185 5.18793C11.7409 3.71144 11.2399 2.45333 10.5864 1.54498C12.0845 2.19425 13.3027 3.36309 14.0244 4.82133V4.82161ZM11.111 5.28505C10.6498 3.06975 9.26203 1.40379 8.41993 1.05432V5.39733C9.26203 5.38695 10.3702 5.344 11.111 5.28505ZM8.41993 6.37586C9.26203 6.36491 10.4424 6.3186 11.2261 6.25347C11.2907 6.77165 11.3069 7.30807 11.3069 7.85965C11.3069 8.56814 11.2817 9.2553 11.1773 9.90456C10.4056 9.84225 9.26203 9.79733 8.41993 9.78723V6.37586ZM8.41993 10.7658V14.6653V14.6655C9.26203 14.3394 10.5089 12.8662 11.0086 10.871C10.2872 10.8154 9.26203 10.7759 8.41993 10.7658ZM10.5864 14.1749C11.1753 13.3564 11.6444 12.2577 11.9338 10.9673C12.9016 11.0787 13.5113 11.2084 13.8187 11.2859C13.0785 12.5703 11.9455 13.583 10.5864 14.1749ZM12.1667 6.15523C12.3144 7.43421 12.2946 8.72699 12.1078 10.0008L12.1081 10.0006C13.3027 10.1409 13.9823 10.3099 14.2526 10.3888C14.5642 9.60505 14.7411 8.75312 14.7411 7.85965C14.7407 6.97649 14.5691 6.10179 14.2358 5.28393L14.3938 5.73025C14.3495 5.74597 13.6797 5.97361 12.1667 6.15523Z" fill="white"/>
</g>
</svg>
