<?xml version="1.0" encoding="UTF-8"?>
<svg xmlns="http://www.w3.org/2000/svg" xmlns:xlink="http://www.w3.org/1999/xlink" width="119.355385pt" height="12.5577pt" viewBox="0 0 119.355385 12.5577" version="1.1">
<defs>
<clipPath id="clip1">
  <path d="M 0 0 L 12 0 L 12 12.558594 L 0 12.558594 Z M 0 0 "/>
</clipPath>
<clipPath id="clip2">
  <path d="M 31 0 L 43 0 L 43 12.558594 L 31 12.558594 Z M 31 0 "/>
</clipPath>
<clipPath id="clip3">
  <path d="M 16 0 L 28 0 L 28 12.558594 L 16 12.558594 Z M 16 0 "/>
</clipPath>
<clipPath id="clip4">
  <path d="M 46 0 L 58 0 L 58 12.558594 L 46 12.558594 Z M 46 0 "/>
</clipPath>
<clipPath id="clip5">
  <path d="M 67 0 L 77 0 L 77 12.558594 L 67 12.558594 Z M 67 0 "/>
</clipPath>
<clipPath id="clip6">
  <path d="M 80 0 L 93 0 L 93 12.558594 L 80 12.558594 Z M 80 0 "/>
</clipPath>
<clipPath id="clip7">
  <path d="M 80 0 L 94 0 L 94 12.558594 L 80 12.558594 Z M 80 0 "/>
</clipPath>
<clipPath id="clip8">
  <path d="M 96 0 L 107 0 L 107 12.558594 L 96 12.558594 Z M 96 0 "/>
</clipPath>
<clipPath id="clip9">
  <path d="M 95 0 L 107 0 L 107 12.558594 L 95 12.558594 Z M 95 0 "/>
</clipPath>
<clipPath id="clip10">
  <path d="M 110 0 L 119.355469 0 L 119.355469 12.558594 L 110 12.558594 Z M 110 0 "/>
</clipPath>
</defs>
<g id="surface1">
<g clip-path="url(#clip1)" clip-rule="nonzero">
<path style=" stroke:none;fill-rule:nonzero;fill:rgb(0%,0%,0%);fill-opacity:1;" d="M 9.039062 0.652344 L 9.039062 7.289062 C 9.039062 9.5 8.078125 10.414062 5.769531 10.414062 C 3.460938 10.414062 2.5 9.5 2.5 7.289062 L 2.5 0.367188 L 0.289062 0.367188 C 0.144531 0.367188 0 0.507812 0 0.652344 L 0 7.382812 C 0 11.085938 2.355469 12.382812 5.769531 12.382812 C 9.183594 12.382812 11.539062 11.085938 11.539062 7.382812 L 11.539062 0.367188 L 9.328125 0.367188 C 9.183594 0.367188 9.039062 0.460938 9.039062 0.652344 Z M 9.039062 0.652344 "/>
</g>
<g clip-path="url(#clip2)" clip-rule="nonzero">
<path style=" stroke:none;fill-rule:nonzero;fill:rgb(0%,0%,0%);fill-opacity:1;" d="M 41.203125 2.289062 C 41.394531 2.289062 41.492188 2.242188 41.539062 2.097656 L 42.164062 0.507812 C 42.210938 0.414062 42.164062 0.367188 42.066406 0.367188 L 33.125 0.367188 C 32.308594 0.367188 31.972656 0.605469 31.972656 1.183594 L 31.972656 11.472656 C 31.972656 11.953125 32.210938 12.191406 32.835938 12.191406 L 41.152344 12.191406 C 41.347656 12.191406 41.441406 12.144531 41.492188 12 L 42.117188 10.414062 C 42.164062 10.316406 42.117188 10.269531 42.019531 10.269531 L 34.421875 10.269531 L 34.421875 8.152344 C 34.421875 7.433594 34.808594 7.097656 35.914062 7.097656 L 39.230469 7.097656 C 39.421875 7.097656 39.519531 7.046875 39.566406 6.902344 L 40.191406 5.367188 C 40.242188 5.269531 40.191406 5.222656 40.097656 5.222656 L 34.472656 5.222656 L 34.472656 2.242188 L 41.203125 2.242188 Z M 41.203125 2.289062 "/>
</g>
<g clip-path="url(#clip3)" clip-rule="nonzero">
<path style=" stroke:none;fill-rule:evenodd;fill:rgb(0%,0%,0%);fill-opacity:1;" d="M 25.480469 5.941406 C 26.441406 5.414062 26.828125 4.5 26.828125 3.347656 C 26.828125 0.75 24.710938 0.367188 22.5 0.367188 L 17.453125 0.367188 C 16.632812 0.367188 16.296875 0.605469 16.296875 1.183594 L 16.296875 11.472656 C 16.296875 11.953125 16.539062 12.191406 17.164062 12.191406 L 23.367188 12.191406 C 25.722656 12.191406 27.355469 11.277344 27.355469 8.921875 C 27.402344 7.480469 26.828125 6.277344 25.480469 5.941406 Z M 18.796875 2.242188 L 22.691406 2.242188 C 23.992188 2.242188 24.375 2.722656 24.375 3.730469 C 24.375 4.742188 23.992188 5.222656 22.691406 5.222656 L 18.796875 5.222656 Z M 18.796875 10.269531 L 23.171875 10.269531 C 24.566406 10.269531 24.953125 9.789062 24.953125 8.683594 C 24.953125 7.578125 24.566406 7.046875 23.171875 7.046875 L 20.289062 7.046875 C 19.183594 7.046875 18.796875 7.382812 18.796875 8.105469 Z M 18.796875 10.269531 "/>
</g>
<g clip-path="url(#clip4)" clip-rule="nonzero">
<path style=" stroke:none;fill-rule:evenodd;fill:rgb(0%,0%,0%);fill-opacity:1;" d="M 55 7.433594 L 57.644531 12 C 57.691406 12.046875 57.691406 12.191406 57.597656 12.191406 L 55.335938 12.191406 C 55.144531 12.191406 55.097656 12.144531 55 12 L 52.597656 7.671875 L 50.433594 7.671875 C 49.328125 7.671875 48.941406 8.007812 48.941406 8.730469 L 48.941406 12.191406 L 46.777344 12.191406 C 46.632812 12.191406 46.492188 12.046875 46.492188 11.902344 L 46.492188 1.183594 C 46.492188 0.605469 46.828125 0.367188 47.644531 0.367188 L 52.691406 0.367188 C 55.625 0.367188 57.402344 1.132812 57.402344 4.019531 C 57.402344 6.230469 56.296875 7.097656 55 7.433594 Z M 48.894531 5.847656 L 53.027344 5.847656 C 54.566406 5.847656 54.902344 5.269531 54.902344 4.019531 C 54.902344 2.816406 54.566406 2.242188 53.027344 2.242188 L 48.894531 2.242188 Z M 48.894531 5.847656 "/>
</g>
<g clip-path="url(#clip5)" clip-rule="nonzero">
<path style=" stroke:none;fill-rule:nonzero;fill:rgb(34.117126%,67.842102%,33.724976%);fill-opacity:1;" d="M 76.058594 11.132812 L 76.007812 12.191406 L 67.257812 12.191406 L 67.257812 0.367188 L 75.671875 0.367188 L 75.722656 1.472656 L 68.460938 1.472656 L 68.460938 5.558594 L 74.710938 5.558594 L 74.710938 6.519531 L 68.460938 6.519531 L 68.460938 11.132812 Z M 76.058594 11.132812 "/>
<path style=" stroke:none;fill-rule:nonzero;fill:rgb(34.117126%,67.842102%,33.724976%);fill-opacity:1;" d="M 76.058594 11.132812 L 76.183594 11.140625 L 76.1875 11.007812 L 76.058594 11.007812 Z M 76.007812 12.191406 L 76.007812 12.316406 L 76.128906 12.316406 L 76.132812 12.199219 Z M 67.257812 12.191406 L 67.132812 12.191406 L 67.132812 12.316406 L 67.257812 12.316406 Z M 67.257812 0.367188 L 67.257812 0.242188 L 67.132812 0.242188 L 67.132812 0.367188 Z M 75.671875 0.367188 L 75.796875 0.359375 L 75.792969 0.242188 L 75.671875 0.242188 Z M 75.722656 1.472656 L 75.722656 1.597656 L 75.851562 1.597656 L 75.847656 1.464844 Z M 68.460938 1.472656 L 68.460938 1.347656 L 68.335938 1.347656 L 68.335938 1.472656 Z M 68.460938 5.558594 L 68.335938 5.558594 L 68.335938 5.683594 L 68.460938 5.683594 Z M 74.710938 5.558594 L 74.835938 5.558594 L 74.835938 5.433594 L 74.710938 5.433594 Z M 74.710938 6.519531 L 74.710938 6.644531 L 74.835938 6.644531 L 74.835938 6.519531 Z M 68.460938 6.519531 L 68.460938 6.394531 L 68.335938 6.394531 L 68.335938 6.519531 Z M 68.460938 11.132812 L 68.335938 11.132812 L 68.335938 11.257812 L 68.460938 11.257812 Z M 75.933594 11.128906 L 75.882812 12.1875 L 76.132812 12.199219 L 76.183594 11.140625 Z M 76.007812 12.066406 L 67.257812 12.066406 L 67.257812 12.316406 L 76.007812 12.316406 Z M 67.382812 12.191406 L 67.382812 0.367188 L 67.132812 0.367188 L 67.132812 12.191406 Z M 67.257812 0.492188 L 75.671875 0.492188 L 75.671875 0.242188 L 67.257812 0.242188 Z M 75.546875 0.371094 L 75.597656 1.476562 L 75.847656 1.464844 L 75.796875 0.359375 Z M 75.722656 1.347656 L 68.460938 1.347656 L 68.460938 1.597656 L 75.722656 1.597656 Z M 68.335938 1.472656 L 68.335938 5.558594 L 68.585938 5.558594 L 68.585938 1.472656 Z M 68.460938 5.683594 L 74.710938 5.683594 L 74.710938 5.433594 L 68.460938 5.433594 Z M 74.585938 5.558594 L 74.585938 6.519531 L 74.835938 6.519531 L 74.835938 5.558594 Z M 74.710938 6.394531 L 68.460938 6.394531 L 68.460938 6.644531 L 74.710938 6.644531 Z M 68.335938 6.519531 L 68.335938 11.132812 L 68.585938 11.132812 L 68.585938 6.519531 Z M 68.460938 11.257812 L 76.058594 11.257812 L 76.058594 11.007812 L 68.460938 11.007812 Z M 68.460938 11.257812 "/>
</g>
<g clip-path="url(#clip6)" clip-rule="nonzero">
<path style=" stroke:none;fill-rule:evenodd;fill:rgb(34.117126%,67.842102%,33.724976%);fill-opacity:1;" d="M 83.316406 9.117188 L 90.289062 9.117188 L 91.632812 12.191406 L 92.980469 12.191406 L 87.546875 0.367188 L 86.152344 0.367188 L 80.671875 12.191406 L 81.972656 12.191406 Z M 83.75 8.105469 L 86.296875 2.382812 L 86.777344 1.183594 L 86.828125 1.183594 L 87.308594 2.382812 L 89.808594 8.105469 Z M 83.75 8.105469 "/>
</g>
<g clip-path="url(#clip7)" clip-rule="nonzero">
<path style=" stroke:none;fill-rule:nonzero;fill:rgb(34.117126%,67.842102%,33.724976%);fill-opacity:1;" d="M 90.289062 9.117188 L 90.402344 9.066406 L 90.371094 8.992188 L 90.289062 8.992188 Z M 83.316406 9.117188 L 83.316406 8.992188 L 83.234375 8.992188 L 83.203125 9.066406 Z M 91.632812 12.191406 L 91.519531 12.242188 L 91.554688 12.316406 L 91.632812 12.316406 Z M 92.980469 12.191406 L 92.980469 12.316406 L 93.175781 12.316406 L 93.09375 12.140625 Z M 87.546875 0.367188 L 87.660156 0.3125 L 87.628906 0.242188 L 87.546875 0.242188 Z M 86.152344 0.367188 L 86.152344 0.242188 L 86.074219 0.242188 L 86.039062 0.3125 Z M 80.671875 12.191406 L 80.558594 12.140625 L 80.476562 12.316406 L 80.671875 12.316406 Z M 81.972656 12.191406 L 81.972656 12.316406 L 82.054688 12.316406 L 82.085938 12.242188 Z M 86.296875 2.382812 L 86.414062 2.433594 L 86.414062 2.429688 Z M 83.75 8.105469 L 83.636719 8.054688 L 83.558594 8.230469 L 83.75 8.230469 Z M 86.777344 1.183594 L 86.777344 1.058594 L 86.695312 1.058594 L 86.664062 1.136719 Z M 86.828125 1.183594 L 86.941406 1.136719 L 86.910156 1.058594 L 86.828125 1.058594 Z M 87.308594 2.382812 L 87.191406 2.429688 L 87.191406 2.433594 Z M 89.808594 8.105469 L 89.808594 8.230469 L 90 8.230469 L 89.921875 8.054688 Z M 90.289062 8.992188 L 83.316406 8.992188 L 83.316406 9.242188 L 90.289062 9.242188 Z M 91.75 12.140625 L 90.402344 9.066406 L 90.175781 9.164062 L 91.519531 12.242188 Z M 92.980469 12.066406 L 91.632812 12.066406 L 91.632812 12.316406 L 92.980469 12.316406 Z M 87.433594 0.417969 L 92.867188 12.246094 L 93.09375 12.140625 L 87.660156 0.3125 Z M 86.152344 0.492188 L 87.546875 0.492188 L 87.546875 0.242188 L 86.152344 0.242188 Z M 80.785156 12.246094 L 86.265625 0.417969 L 86.039062 0.3125 L 80.558594 12.140625 Z M 81.972656 12.066406 L 80.671875 12.066406 L 80.671875 12.316406 L 81.972656 12.316406 Z M 83.203125 9.066406 L 81.855469 12.140625 L 82.085938 12.242188 L 83.433594 9.164062 Z M 86.183594 2.332031 L 83.636719 8.054688 L 83.863281 8.15625 L 86.414062 2.433594 Z M 86.664062 1.136719 L 86.183594 2.339844 L 86.414062 2.429688 L 86.894531 1.230469 Z M 86.828125 1.058594 L 86.777344 1.058594 L 86.777344 1.308594 L 86.828125 1.308594 Z M 87.421875 2.339844 L 86.941406 1.136719 L 86.710938 1.230469 L 87.191406 2.429688 Z M 89.921875 8.054688 L 87.421875 2.335938 L 87.191406 2.433594 L 89.691406 8.15625 Z M 83.75 8.230469 L 89.808594 8.230469 L 89.808594 7.980469 L 83.75 7.980469 Z M 83.75 8.230469 "/>
</g>
<g clip-path="url(#clip8)" clip-rule="nonzero">
<path style=" stroke:none;fill-rule:nonzero;fill:rgb(34.117126%,67.842102%,33.724976%);fill-opacity:1;" d="M 101.632812 1.472656 L 101.632812 12.191406 L 100.433594 12.191406 L 100.433594 1.472656 L 96.007812 1.472656 L 96.058594 0.367188 L 106.105469 0.367188 L 106.105469 1.472656 Z M 101.632812 1.472656 "/>
</g>
<g clip-path="url(#clip9)" clip-rule="nonzero">
<path style=" stroke:none;fill-rule:nonzero;fill:rgb(34.117126%,67.842102%,33.724976%);fill-opacity:1;" d="M 101.632812 1.472656 L 101.632812 1.347656 L 101.507812 1.347656 L 101.507812 1.472656 Z M 101.632812 12.191406 L 101.632812 12.316406 L 101.757812 12.316406 L 101.757812 12.191406 Z M 100.433594 12.191406 L 100.308594 12.191406 L 100.308594 12.316406 L 100.433594 12.316406 Z M 100.433594 1.472656 L 100.558594 1.472656 L 100.558594 1.347656 L 100.433594 1.347656 Z M 96.007812 1.472656 L 95.882812 1.464844 L 95.878906 1.597656 L 96.007812 1.597656 Z M 96.058594 0.367188 L 96.058594 0.242188 L 95.9375 0.242188 L 95.933594 0.359375 Z M 106.105469 0.367188 L 106.230469 0.367188 L 106.230469 0.242188 L 106.105469 0.242188 Z M 106.105469 1.472656 L 106.105469 1.597656 L 106.230469 1.597656 L 106.230469 1.472656 Z M 101.507812 1.472656 L 101.507812 12.191406 L 101.757812 12.191406 L 101.757812 1.472656 Z M 101.632812 12.066406 L 100.433594 12.066406 L 100.433594 12.316406 L 101.632812 12.316406 Z M 100.558594 12.191406 L 100.558594 1.472656 L 100.308594 1.472656 L 100.308594 12.191406 Z M 100.433594 1.347656 L 96.007812 1.347656 L 96.007812 1.597656 L 100.433594 1.597656 Z M 96.132812 1.476562 L 96.183594 0.371094 L 95.933594 0.359375 L 95.882812 1.464844 Z M 96.058594 0.492188 L 106.105469 0.492188 L 106.105469 0.242188 L 96.058594 0.242188 Z M 105.980469 0.367188 L 105.980469 1.472656 L 106.230469 1.472656 L 106.230469 0.367188 Z M 106.105469 1.347656 L 101.632812 1.347656 L 101.632812 1.597656 L 106.105469 1.597656 Z M 106.105469 1.347656 "/>
</g>
<g clip-path="url(#clip10)" clip-rule="nonzero">
<path style=" stroke:none;fill-rule:nonzero;fill:rgb(34.117126%,67.842102%,33.724976%);fill-opacity:1;" d="M 114.664062 12.433594 C 113.027344 12.433594 111.730469 12.046875 110.671875 11.421875 L 110.867188 10.367188 C 111.972656 10.992188 113.222656 11.375 114.710938 11.375 C 116.921875 11.375 118.078125 10.367188 118.078125 8.921875 C 118.078125 5.796875 110.867188 7.433594 110.867188 3.394531 C 110.867188 1.664062 112.164062 0.125 115.191406 0.125 C 116.585938 0.125 117.835938 0.367188 118.847656 0.847656 L 118.652344 1.855469 C 117.546875 1.421875 116.492188 1.183594 115.242188 1.183594 C 112.882812 1.183594 112.019531 2.242188 112.019531 3.296875 C 112.019531 6.277344 119.230469 4.597656 119.230469 8.828125 C 119.183594 10.941406 117.644531 12.433594 114.664062 12.433594 Z M 114.664062 12.433594 "/>
<path style=" stroke:none;fill-rule:nonzero;fill:rgb(34.117126%,67.842102%,33.724976%);fill-opacity:1;" d="M 110.671875 11.421875 L 110.550781 11.402344 L 110.535156 11.488281 L 110.609375 11.53125 Z M 110.867188 10.367188 L 110.925781 10.257812 L 110.773438 10.171875 L 110.742188 10.34375 Z M 118.847656 0.847656 L 118.96875 0.871094 L 118.988281 0.773438 L 118.898438 0.734375 Z M 118.652344 1.855469 L 118.609375 1.972656 L 118.746094 2.027344 L 118.777344 1.878906 Z M 119.230469 8.828125 L 119.355469 8.828125 Z M 114.664062 12.308594 C 113.050781 12.308594 111.773438 11.929688 110.738281 11.316406 L 110.609375 11.53125 C 111.6875 12.167969 113.007812 12.558594 114.664062 12.558594 Z M 110.796875 11.445312 L 110.988281 10.386719 L 110.742188 10.34375 L 110.550781 11.402344 Z M 110.804688 10.472656 C 111.925781 11.109375 113.199219 11.5 114.710938 11.5 L 114.710938 11.25 C 113.246094 11.25 112.015625 10.871094 110.925781 10.257812 Z M 114.710938 11.5 C 115.835938 11.5 116.707031 11.242188 117.300781 10.789062 C 117.898438 10.332031 118.203125 9.679688 118.203125 8.921875 L 117.953125 8.921875 C 117.953125 9.609375 117.679688 10.183594 117.148438 10.589844 C 116.613281 11 115.800781 11.25 114.710938 11.25 Z M 118.203125 8.921875 C 118.203125 8.507812 118.082031 8.164062 117.867188 7.878906 C 117.65625 7.597656 117.355469 7.378906 117.007812 7.199219 C 116.316406 6.839844 115.398438 6.621094 114.503906 6.378906 C 113.601562 6.136719 112.71875 5.867188 112.0625 5.417969 C 111.414062 4.976562 110.992188 4.355469 110.992188 3.394531 L 110.742188 3.394531 C 110.742188 4.449219 111.214844 5.140625 111.921875 5.625 C 112.617188 6.101562 113.539062 6.378906 114.4375 6.621094 C 115.347656 6.867188 116.230469 7.078125 116.894531 7.417969 C 117.222656 7.589844 117.484375 7.785156 117.667969 8.027344 C 117.847656 8.269531 117.953125 8.558594 117.953125 8.921875 Z M 110.992188 3.394531 C 110.992188 2.5625 111.300781 1.78125 111.972656 1.207031 C 112.648438 0.628906 113.699219 0.25 115.191406 0.25 L 115.191406 0 C 113.65625 0 112.542969 0.390625 111.8125 1.015625 C 111.078125 1.644531 110.742188 2.496094 110.742188 3.394531 Z M 115.191406 0.25 C 116.574219 0.25 117.804688 0.488281 118.792969 0.960938 L 118.898438 0.734375 C 117.871094 0.242188 116.601562 0 115.191406 0 Z M 118.722656 0.824219 L 118.53125 1.832031 L 118.777344 1.878906 L 118.96875 0.871094 Z M 118.699219 1.738281 C 117.582031 1.300781 116.507812 1.058594 115.242188 1.058594 L 115.242188 1.308594 C 116.472656 1.308594 117.515625 1.542969 118.609375 1.972656 Z M 115.242188 1.058594 C 114.046875 1.058594 113.210938 1.324219 112.667969 1.746094 C 112.125 2.167969 111.894531 2.734375 111.894531 3.296875 L 112.144531 3.296875 C 112.144531 2.804688 112.34375 2.3125 112.824219 1.941406 C 113.304688 1.570312 114.078125 1.308594 115.242188 1.308594 Z M 111.894531 3.296875 C 111.894531 3.699219 112.015625 4.027344 112.230469 4.296875 C 112.445312 4.5625 112.746094 4.769531 113.089844 4.9375 C 113.78125 5.269531 114.699219 5.476562 115.59375 5.714844 C 116.496094 5.957031 117.375 6.230469 118.03125 6.699219 C 118.675781 7.160156 119.105469 7.8125 119.105469 8.828125 L 119.355469 8.828125 C 119.355469 7.726562 118.882812 7 118.175781 6.496094 C 117.480469 5.996094 116.558594 5.714844 115.65625 5.472656 C 114.746094 5.230469 113.863281 5.03125 113.199219 4.710938 C 112.871094 4.554688 112.609375 4.367188 112.425781 4.140625 C 112.246094 3.914062 112.144531 3.644531 112.144531 3.296875 Z M 119.105469 8.824219 C 119.082031 9.851562 118.699219 10.714844 117.964844 11.328125 C 117.230469 11.941406 116.132812 12.308594 114.664062 12.308594 L 114.664062 12.558594 C 116.171875 12.558594 117.335938 12.179688 118.125 11.519531 C 118.921875 10.855469 119.332031 9.917969 119.355469 8.828125 Z M 119.105469 8.824219 "/>
</g>
</g>
</svg>
